<svg width="152" height="45" viewBox="0 0 152 45" fill="none" xmlns="http://www.w3.org/2000/svg">
<g clip-path="url(#clip0_87_694)">
<path d="M139.895 0.00014625H12.1111C11.6453 0.00014625 11.1852 0.00014625 10.7206 0.00239625C10.3317 0.00464625 9.94596 0.0111825 9.55335 0.0166837C8.7004 0.0255733 7.84947 0.0920321 7.00794 0.215483C6.1676 0.341621 5.35357 0.579427 4.59341 0.920857C3.83416 1.26517 3.14043 1.71259 2.53735 2.24685C1.93112 2.77962 1.42578 3.39542 1.04076 4.07058C0.654673 4.74439 0.386962 5.46645 0.246868 6.21181C0.105442 6.95623 0.0293401 7.70923 0.0192439 8.46406C0.00745621 8.80899 0.00621138 9.15506 0 9.50003V35.5035C0.00621138 35.8529 0.00745621 36.1912 0.0192439 36.5407C0.0293432 37.2955 0.105445 38.0485 0.246868 38.7928C0.386574 39.5387 0.654303 40.2612 1.04076 40.9352C1.4256 41.6081 1.93102 42.2215 2.53735 42.7512C3.13815 43.2879 3.83233 43.7356 4.59341 44.0773C5.35356 44.4196 6.16751 44.6589 7.00794 44.7869C7.84962 44.9094 8.70046 44.9759 9.55335 44.9858C9.94596 44.9935 10.3317 44.9979 10.7206 44.9979C11.1852 45.0001 11.6455 45.0001 12.1111 45.0001H139.895C140.352 45.0001 140.816 45.0001 141.272 44.9979C141.66 44.9979 142.057 44.9935 142.443 44.9858C143.294 44.9765 144.144 44.91 144.984 44.7869C145.828 44.658 146.644 44.4188 147.407 44.0773C148.168 43.7354 148.862 43.2878 149.462 42.7512C150.067 42.2194 150.573 41.6065 150.963 40.9352C151.347 40.2606 151.612 39.5382 151.749 38.7928C151.891 38.0484 151.97 37.2955 151.985 36.5407C151.99 36.1912 151.99 35.8529 151.99 35.5035C152 35.0948 152 34.6884 152 34.273V10.7283C152 10.3163 152 9.90762 151.99 9.50003C151.99 9.15506 151.99 8.80899 151.985 8.46402C151.97 7.70912 151.891 6.95629 151.749 6.21177C151.612 5.46684 151.346 4.74483 150.963 4.07053C150.179 2.71725 148.935 1.61568 147.407 0.920756C146.644 0.580159 145.828 0.342416 144.984 0.215381C144.144 0.0913869 143.295 0.024905 142.443 0.0165263C142.057 0.0110362 141.66 0.00444375 141.272 0.00225C140.816 0 140.352 0 139.895 0V0.00014625Z" fill="#A6A6A6"/>
<path d="M10.6175 44.0191C10.2299 44.0191 9.85155 44.0147 9.46691 44.0071C8.67009 43.998 7.87514 43.9365 7.08858 43.8236C6.35514 43.7119 5.64465 43.5041 4.98052 43.2071C4.32248 42.9124 3.72229 42.5262 3.20296 42.0632C2.6761 41.6054 2.23746 41.0746 1.90444 40.4918C1.56774 39.905 1.33473 39.2761 1.21351 38.627C1.08262 37.9295 1.01179 37.2242 1.00166 36.5172C0.993593 36.2799 0.983032 35.4897 0.983032 35.4897V9.49617C0.983032 9.49617 0.99428 8.71818 1.00172 8.4896C1.01143 7.78372 1.08184 7.07951 1.21234 6.38308C1.33378 5.73216 1.56697 5.10146 1.90385 4.51283C2.23565 3.93031 2.67186 3.39911 3.19554 2.93981C3.71863 2.47615 4.32073 2.08792 4.97989 1.78929C5.6425 1.49322 6.35165 1.2869 7.08361 1.17722C7.87276 1.06309 8.67046 1.00138 9.47004 0.992621L10.6182 0.978882H141.383L142.545 0.993173C143.337 1.0015 144.128 1.06266 144.909 1.17612C145.649 1.28717 146.365 1.49493 147.035 1.79259C148.355 2.39442 149.431 3.34656 150.108 4.51557C150.44 5.10014 150.669 5.7257 150.789 6.371C150.921 7.07314 150.995 7.78289 151.01 8.49455C151.014 8.81322 151.014 9.15552 151.014 9.49617C151.024 9.91813 151.024 10.3198 151.024 10.7247V34.2744C151.024 34.6832 151.024 35.0821 151.014 35.4842C151.014 35.8502 151.014 36.1854 151.009 36.5303C150.995 37.2293 150.921 37.9264 150.792 38.616C150.673 39.2698 150.441 39.9036 150.104 40.4952C149.768 41.0717 149.333 41.5979 148.813 42.0544C148.292 42.5199 147.691 42.9085 147.031 43.2049C146.364 43.5042 145.648 43.7128 144.909 43.8236C144.123 43.9372 143.327 43.9985 142.531 44.0071C142.158 44.0147 141.768 44.0191 141.389 44.0191L140.009 44.0214L10.6175 44.0191Z" fill="black"/>
<path d="M36.9274 22.8384C36.9395 21.8995 37.1892 20.9788 37.653 20.1621C38.1169 19.3454 38.7801 18.6592 39.5807 18.1674C39.072 17.4416 38.4011 16.8443 37.6211 16.4229C36.8409 16.0016 35.9733 15.7677 35.0869 15.74C33.1963 15.5417 31.3633 16.8704 30.3998 16.8704C29.4177 16.8704 27.9343 15.7597 26.3369 15.7926C25.3037 15.8259 24.2967 16.1261 23.4141 16.6639C22.5315 17.2017 21.8035 17.9588 21.3008 18.8613C19.1232 22.6284 20.7475 28.1645 22.8334 31.2095C23.877 32.7005 25.0967 34.366 26.6926 34.3069C28.2544 34.2422 28.8376 33.3119 30.7227 33.3119C32.5904 33.3119 33.1376 34.3069 34.7659 34.2693C36.4418 34.2422 37.4977 32.7717 38.5046 31.2666C39.2544 30.2042 39.8315 29.03 40.2143 27.7875C39.2406 27.3761 38.4098 26.6874 37.8253 25.8073C37.2408 24.9272 36.9285 23.8947 36.9274 22.8384Z" fill="white"/>
<path d="M33.8519 13.7371C34.7656 12.6411 35.2158 11.2325 35.1068 9.81018C33.7108 9.95669 32.4213 10.6233 31.4952 11.6772C31.0425 12.1921 30.6957 12.7911 30.4747 13.44C30.2538 14.0889 30.1631 14.7749 30.2075 15.4588C30.9058 15.466 31.5966 15.3148 32.2278 15.0166C32.8591 14.7183 33.4144 14.2809 33.8519 13.7371Z" fill="white"/>
<path d="M56.669 30.5322H51.3396L50.0596 34.3081H47.8024L52.8503 20.3379H55.1956L60.2436 34.3081H57.9477L56.669 30.5322ZM51.8915 28.7897H56.116L54.0335 22.6616H53.9751L51.8915 28.7897Z" fill="white"/>
<path d="M71.1456 29.2162C71.1456 32.3814 69.45 34.4149 66.8915 34.4149C66.2433 34.4488 65.5987 34.2996 65.0315 33.9845C64.4642 33.6694 63.9973 33.2009 63.6842 32.6329H63.6358V37.6779H61.5433V24.123H63.5687V25.8171H63.6072C63.9347 25.2518 64.4096 24.7858 64.9811 24.4687C65.5526 24.1516 66.1996 23.9953 66.853 24.0164C69.4401 24.0164 71.1456 26.0599 71.1456 29.2162ZM68.9948 29.2162C68.9948 27.154 67.9283 25.7984 66.301 25.7984C64.7022 25.7984 63.627 27.1826 63.627 29.2162C63.627 31.2685 64.7022 32.6428 66.301 32.6428C67.9283 32.6428 68.9948 31.2971 68.9948 29.2162Z" fill="white"/>
<path d="M82.3652 29.2162C82.3652 32.3814 80.6698 34.4149 78.1111 34.4149C77.463 34.4488 76.8184 34.2996 76.2512 33.9845C75.6839 33.6694 75.217 33.2009 74.9038 32.6329H74.8554V37.6779H72.7629V24.123H74.7883V25.817H74.8268C75.1544 25.2518 75.6292 24.7858 76.2007 24.4687C76.7724 24.1516 77.4192 23.9953 78.0726 24.0164C80.6598 24.0164 82.3652 26.0599 82.3652 29.2162ZM80.2145 29.2162C80.2145 27.154 79.148 25.7983 77.5207 25.7983C75.922 25.7983 74.8466 27.1826 74.8466 29.2162C74.8466 31.2685 75.922 32.6428 77.5207 32.6428C79.148 32.6428 80.2145 31.297 80.2145 29.2162Z" fill="white"/>
<path d="M89.7805 30.4157C89.9356 31.801 91.2825 32.7107 93.123 32.7107C94.8867 32.7107 96.1556 31.801 96.1556 30.5518C96.1556 29.4676 95.3903 28.8182 93.5783 28.3733L91.7663 27.9371C89.1989 27.3175 88.007 26.1178 88.007 24.1711C88.007 21.7606 90.1093 20.105 93.0945 20.105C96.0489 20.105 98.0743 21.7606 98.1424 24.1711H96.0302C95.9037 22.7769 94.7504 21.9354 93.0648 21.9354C91.3792 21.9354 90.2258 22.7868 90.2258 24.0261C90.2258 25.0137 90.9625 25.5949 92.7647 26.0398L94.305 26.4177C97.1738 27.0955 98.3657 28.2469 98.3657 30.2904C98.3657 32.904 96.2821 34.541 92.968 34.541C89.8673 34.541 87.7738 32.9425 87.6385 30.4156L89.7805 30.4157Z" fill="white"/>
<path d="M102.881 21.7123V24.1227H104.82V25.7784H102.881V31.3935C102.881 32.2658 103.27 32.6723 104.122 32.6723C104.352 32.6682 104.582 32.6521 104.81 32.6239V34.2696C104.427 34.3412 104.038 34.3736 103.648 34.3663C101.584 34.3663 100.779 33.5917 100.779 31.6164V25.7784H99.297V24.1227H100.779V21.7123H102.881Z" fill="white"/>
<path d="M105.943 29.2159C105.943 26.0112 107.832 23.9974 110.777 23.9974C113.733 23.9974 115.613 26.0112 115.613 29.2159C115.613 32.4294 113.742 34.4344 110.777 34.4344C107.813 34.4344 105.943 32.4294 105.943 29.2159ZM113.481 29.2159C113.481 27.0175 112.473 25.72 110.777 25.72C109.082 25.72 108.075 27.0274 108.075 29.2159C108.075 31.423 109.082 32.7107 110.777 32.7107C112.473 32.7107 113.481 31.423 113.481 29.2159Z" fill="white"/>
<path d="M117.338 24.1228H119.334V25.8565H119.382C119.517 25.315 119.835 24.8365 120.282 24.5014C120.727 24.1663 121.276 23.9949 121.834 24.0163C122.075 24.0154 122.316 24.0416 122.551 24.0943V26.0499C122.246 25.9569 121.929 25.9142 121.611 25.9235C121.307 25.9111 121.004 25.9647 120.723 26.0805C120.441 26.1962 120.188 26.3714 119.981 26.594C119.774 26.8167 119.617 27.0815 119.523 27.3703C119.428 27.6589 119.397 27.9648 119.43 28.2669V34.3083H117.338V24.1228Z" fill="white"/>
<path d="M132.198 31.3165C131.917 33.1655 130.114 34.4344 127.81 34.4344C124.844 34.4344 123.003 32.4491 123.003 29.2642C123.003 26.0695 124.854 23.9974 127.722 23.9974C130.541 23.9974 132.315 25.9332 132.315 29.0215V29.7377H125.115V29.8641C125.083 30.2389 125.129 30.6166 125.253 30.9719C125.378 31.3271 125.576 31.652 125.835 31.925C126.094 32.1978 126.409 32.4124 126.758 32.5545C127.106 32.6966 127.481 32.7629 127.858 32.749C128.352 32.7954 128.848 32.681 129.272 32.4228C129.697 32.1647 130.026 31.7767 130.211 31.3165H132.198ZM125.125 28.2766H130.221C130.24 27.9395 130.189 27.6023 130.071 27.2858C129.953 26.9695 129.771 26.6809 129.537 26.4381C129.301 26.1955 129.02 26.0038 128.707 25.8753C128.395 25.7468 128.059 25.6843 127.722 25.6915C127.381 25.6894 127.043 25.7549 126.727 25.8839C126.412 26.013 126.125 26.2032 125.884 26.4435C125.643 26.6839 125.452 26.9696 125.321 27.2842C125.191 27.5988 125.124 27.9361 125.125 28.2766Z" fill="white"/>
<path d="M51.6287 9.82219C52.0674 9.79074 52.5076 9.85695 52.9176 10.0161C53.3275 10.1752 53.6971 10.4232 53.9995 10.7423C54.3018 11.0614 54.5296 11.4436 54.6663 11.8613C54.8029 12.2789 54.8452 12.7217 54.7899 13.1576C54.7899 15.3022 53.6298 16.5349 51.6287 16.5349H49.202V9.82219H51.6287ZM50.2455 15.5856H51.5122C51.8257 15.6043 52.1393 15.553 52.4304 15.4353C52.7216 15.3176 52.9827 15.1365 53.1949 14.9052C53.4071 14.674 53.5651 14.3984 53.6573 14.0984C53.7494 13.7984 53.7735 13.4817 53.7277 13.1713C53.7701 12.8622 53.7437 12.5474 53.6501 12.2496C53.5565 11.9519 53.3981 11.6786 53.1865 11.4491C52.9747 11.2197 52.7148 11.0399 52.4253 10.9226C52.1359 10.8054 51.8241 10.7535 51.5122 10.7708H50.2455V15.5856Z" fill="white"/>
<path d="M55.969 13.9998C55.9371 13.6669 55.9752 13.331 56.0808 13.0136C56.1865 12.6964 56.3573 12.4045 56.5825 12.157C56.8076 11.9097 57.082 11.7119 57.3881 11.5765C57.6941 11.4412 58.0251 11.3713 58.3599 11.3713C58.6946 11.3713 59.0256 11.4412 59.3317 11.5765C59.6378 11.7119 59.9122 11.9097 60.1373 12.157C60.3625 12.4045 60.5333 12.6964 60.639 13.0136C60.7446 13.331 60.7826 13.6669 60.7508 13.9998C60.7833 14.333 60.7456 14.6694 60.6402 14.9872C60.5348 15.305 60.3641 15.5974 60.139 15.8454C59.9138 16.0933 59.6392 16.2914 59.3328 16.4271C59.0264 16.5627 58.695 16.6327 58.3599 16.6327C58.0248 16.6327 57.6933 16.5627 57.387 16.4271C57.0806 16.2914 56.806 16.0933 56.5808 15.8454C56.3556 15.5974 56.1849 15.305 56.0795 14.9872C55.9742 14.6694 55.9364 14.333 55.969 13.9998ZM59.7217 13.9998C59.7217 12.9017 59.228 12.2595 58.3616 12.2595C57.4918 12.2595 57.0026 12.9017 57.0026 13.9998C57.0026 15.1067 57.4918 15.7439 58.3616 15.7439C59.228 15.7439 59.7217 15.1023 59.7217 13.9998Z" fill="white"/>
<path d="M67.107 16.535H66.0691L65.0212 12.8039H64.942L63.8986 16.535H62.8705L61.473 11.4691H62.4878L63.3961 15.3346H63.4709L64.5133 11.4691H65.4731L66.5155 15.3346H66.5946L67.4984 11.4691H68.499L67.107 16.535Z" fill="white"/>
<path d="M69.6743 11.4693H70.6375V12.274H70.7123C70.8392 11.985 71.0531 11.7427 71.3242 11.5809C71.5955 11.4191 71.9105 11.3459 72.2253 11.3714C72.472 11.353 72.7197 11.3901 72.9501 11.4802C73.1804 11.5703 73.3875 11.7111 73.5561 11.8921C73.7246 12.073 73.8503 12.2895 73.9237 12.5256C73.9971 12.7616 74.0163 13.0111 73.9802 13.2556V16.535H72.9796V13.5067C72.9796 12.6926 72.6255 12.2877 71.8855 12.2877C71.718 12.28 71.5508 12.3084 71.3954 12.3712C71.2399 12.4341 71.1 12.5297 70.985 12.6517C70.8699 12.7736 70.7828 12.9189 70.7292 13.0777C70.6757 13.2365 70.6571 13.4049 70.6749 13.5715V16.5351H69.6743V11.4693Z" fill="white"/>
<path d="M75.5745 9.49158H76.575V16.535H75.5745V9.49158Z" fill="white"/>
<path d="M77.9662 13.9999C77.9345 13.6669 77.9725 13.3311 78.0783 13.0137C78.184 12.6964 78.3548 12.4045 78.58 12.1572C78.8052 11.9097 79.0796 11.7119 79.3857 11.5765C79.6917 11.4412 80.0227 11.3713 80.3575 11.3713C80.6922 11.3713 81.0232 11.4412 81.3294 11.5765C81.6355 11.7119 81.9099 11.9097 82.1351 12.1572C82.3602 12.4045 82.5311 12.6964 82.6368 13.0137C82.7424 13.3311 82.7806 13.6669 82.7487 13.9999C82.7811 14.3331 82.7434 14.6695 82.638 14.9873C82.5326 15.3051 82.3618 15.5975 82.1367 15.8455C81.9115 16.0934 81.6369 16.2915 81.3304 16.4271C81.024 16.5628 80.6927 16.6327 80.3575 16.6327C80.0224 16.6327 79.691 16.5628 79.3846 16.4271C79.0782 16.2915 78.8036 16.0934 78.5784 15.8455C78.3532 15.5975 78.1824 15.3051 78.0769 14.9873C77.9715 14.6695 77.9338 14.3331 77.9662 13.9999ZM81.7189 13.9999C81.7189 12.9018 81.2253 12.2596 80.3588 12.2596C79.4892 12.2596 78.9999 12.9018 78.9999 13.9999C78.9999 15.1068 79.4892 15.744 80.3588 15.744C81.2253 15.744 81.7191 15.1024 81.7191 13.9999H81.7189Z" fill="white"/>
<path d="M83.8024 15.1023C83.8024 14.1905 84.4819 13.6648 85.6881 13.5901L87.0614 13.511V13.0737C87.0614 12.5386 86.7074 12.2366 86.0234 12.2366C85.4649 12.2366 85.0778 12.4414 84.9668 12.7995H83.9981C84.1003 11.9295 84.9195 11.3713 86.0696 11.3713C87.3407 11.3713 88.0576 12.0036 88.0576 13.0737V16.535H87.0943V15.823H87.0152C86.8545 16.0783 86.6289 16.2866 86.3614 16.4263C86.0937 16.566 85.7939 16.6323 85.4924 16.6183C85.2795 16.6405 85.0644 16.6178 84.8608 16.5517C84.6574 16.4857 84.4699 16.3778 84.3107 16.2349C84.1515 16.0922 84.0239 15.9176 83.9365 15.7225C83.8489 15.5273 83.8032 15.3162 83.8024 15.1023ZM87.0614 14.6694V14.2459L85.8233 14.325C85.1251 14.3717 84.8084 14.609 84.8084 15.0556C84.8084 15.5116 85.2043 15.7768 85.7485 15.7768C85.9081 15.7929 86.0692 15.7768 86.2223 15.7296C86.3754 15.6822 86.5174 15.6045 86.6399 15.5012C86.7624 15.3979 86.8629 15.271 86.9353 15.1282C87.0076 14.9852 87.0506 14.8293 87.0614 14.6694Z" fill="white"/>
<path d="M89.3715 13.9999C89.3715 12.3991 90.195 11.3851 91.4759 11.3851C91.7928 11.3705 92.1072 11.4464 92.3826 11.6038C92.6579 11.7611 92.8827 11.9936 93.0307 12.2738H93.1055V9.49158H94.1061V16.535H93.1473V15.7345H93.0681C92.9087 16.013 92.6761 16.2425 92.3954 16.3983C92.1148 16.5541 91.7968 16.6303 91.4759 16.6184C90.1862 16.6184 89.3715 15.6044 89.3715 13.9999ZM90.4051 13.9999C90.4051 15.0743 90.912 15.7208 91.7597 15.7208C92.603 15.7208 93.1242 15.0649 93.1242 14.0043C93.1242 12.9485 92.5975 12.2833 91.7597 12.2833C90.9174 12.2833 90.4049 12.9342 90.4049 13.9999H90.4051Z" fill="white"/>
<path d="M98.2462 13.9998C98.2143 13.6669 98.2524 13.331 98.3581 13.0136C98.4637 12.6964 98.6346 12.4045 98.8597 12.157C99.0849 11.9097 99.3593 11.7119 99.6653 11.5765C99.9715 11.4412 100.302 11.3713 100.637 11.3713C100.972 11.3713 101.303 11.4412 101.609 11.5765C101.915 11.7119 102.189 11.9097 102.414 12.157C102.64 12.4045 102.81 12.6964 102.916 13.0136C103.022 13.331 103.06 13.6669 103.028 13.9998C103.061 14.333 103.023 14.6694 102.918 14.9872C102.812 15.305 102.641 15.5974 102.416 15.8454C102.191 16.0933 101.916 16.2914 101.61 16.4271C101.304 16.5627 100.972 16.6327 100.637 16.6327C100.302 16.6327 99.9707 16.5627 99.6642 16.4271C99.3578 16.2914 99.0832 16.0933 98.858 15.8454C98.6328 15.5974 98.4621 15.305 98.3568 14.9872C98.2514 14.6694 98.2137 14.333 98.2462 13.9998ZM101.999 13.9998C101.999 12.9017 101.505 12.2595 100.639 12.2595C99.769 12.2595 99.2798 12.9017 99.2798 13.9998C99.2798 15.1067 99.7691 15.7439 100.639 15.7439C101.505 15.7439 101.999 15.1023 101.999 13.9998Z" fill="white"/>
<path d="M104.37 11.4693H105.333V12.274H105.408C105.535 11.985 105.749 11.7427 106.02 11.5809C106.291 11.4191 106.606 11.3459 106.921 11.3714C107.168 11.353 107.416 11.3901 107.646 11.4802C107.876 11.5703 108.083 11.7111 108.252 11.8921C108.421 12.073 108.546 12.2895 108.62 12.5256C108.693 12.7616 108.712 13.0111 108.676 13.2556V16.535H107.676V13.5067C107.676 12.6926 107.322 12.2877 106.581 12.2877C106.414 12.28 106.247 12.3084 106.091 12.3712C105.936 12.4341 105.796 12.5297 105.681 12.6517C105.566 12.7736 105.479 12.9189 105.425 13.0777C105.372 13.2365 105.353 13.4049 105.371 13.5715V16.5351H104.37V11.4693Z" fill="white"/>
<path d="M114.331 10.208V11.4923H115.43V12.3344H114.331V14.9393C114.331 15.4699 114.549 15.7022 115.048 15.7022C115.175 15.7019 115.303 15.6941 115.43 15.6792V16.5119C115.25 16.5441 115.067 16.5612 114.885 16.563C113.773 16.563 113.329 16.1719 113.329 15.1952V12.3343H112.524V11.4923H113.329V10.208H114.331Z" fill="white"/>
<path d="M116.795 9.49158H117.786V12.2833H117.866C117.999 11.9914 118.219 11.7478 118.496 11.5854C118.772 11.4231 119.093 11.3498 119.412 11.3757C119.658 11.3624 119.902 11.4034 120.131 11.4956C120.358 11.5879 120.563 11.7293 120.73 11.9096C120.896 12.0901 121.021 12.305 121.096 12.5392C121.169 12.7733 121.19 13.0209 121.158 13.2643V16.535H120.157V13.511C120.157 12.7018 119.779 12.292 119.072 12.292C118.9 12.2779 118.728 12.3015 118.566 12.3612C118.404 12.4208 118.257 12.5152 118.136 12.6375C118.014 12.7598 117.92 12.9073 117.862 13.0694C117.803 13.2315 117.781 13.4045 117.796 13.5763V16.5349H116.795V9.49158Z" fill="white"/>
<path d="M126.993 15.1673C126.857 15.6302 126.562 16.0307 126.161 16.2987C125.759 16.5666 125.276 16.6849 124.796 16.6328C124.462 16.6417 124.13 16.5777 123.824 16.4455C123.516 16.3133 123.242 16.116 123.019 15.8672C122.797 15.6184 122.63 15.3241 122.532 15.0048C122.435 14.6856 122.408 14.3489 122.453 14.0181C122.41 13.6863 122.437 13.349 122.534 13.0287C122.631 12.7085 122.797 12.4128 123.019 12.1619C123.24 11.9109 123.513 11.7105 123.819 11.5742C124.125 11.4378 124.456 11.3686 124.792 11.3715C126.203 11.3715 127.053 12.3345 127.053 13.9253V14.2742H123.474V14.3302C123.458 14.516 123.481 14.7032 123.542 14.8795C123.603 15.0559 123.7 15.2176 123.827 15.3542C123.954 15.4908 124.109 15.5994 124.28 15.673C124.452 15.7466 124.637 15.7835 124.824 15.7814C125.063 15.8101 125.305 15.767 125.52 15.6577C125.734 15.5483 125.912 15.3777 126.029 15.1673H126.993ZM123.474 13.5347H126.034C126.046 13.3647 126.024 13.1939 125.966 13.0334C125.909 12.8729 125.819 12.726 125.701 12.6024C125.583 12.4789 125.442 12.3812 125.284 12.3158C125.126 12.2503 124.956 12.2186 124.786 12.2224C124.613 12.2202 124.441 12.2528 124.281 12.3179C124.121 12.3831 123.975 12.4797 123.853 12.602C123.73 12.7242 123.633 12.8698 123.568 13.03C123.504 13.1902 123.471 13.3618 123.474 13.5347Z" fill="white"/>
</g>
<defs>
<clipPath id="clip0_87_694">
<rect width="152" height="45" fill="white"/>
</clipPath>
</defs>
</svg>
