<svg width="52" height="52" viewBox="0 0 52 52" fill="none" xmlns="http://www.w3.org/2000/svg">
<path d="M40.625 16.25H11.375V43.875C11.375 45.6706 12.8294 47.125 14.625 47.125H37.375C39.1706 47.125 40.625 45.6706 40.625 43.875V16.25Z" stroke="black" stroke-width="2" stroke-miterlimit="10" stroke-linecap="round" stroke-linejoin="round"/>
<path d="M32.5 11.375H19.5V8.125C19.5 6.32937 20.9544 4.875 22.75 4.875H29.25C31.0456 4.875 32.5 6.32937 32.5 8.125V11.375Z" stroke="black" stroke-width="2" stroke-miterlimit="10" stroke-linecap="round" stroke-linejoin="round"/>
<path d="M45.5 16.25H6.5V13C6.5 12.103 7.228 11.375 8.125 11.375H43.875C44.772 11.375 45.5 12.103 45.5 13V16.25Z" stroke="black" stroke-width="2" stroke-miterlimit="10" stroke-linecap="round" stroke-linejoin="round"/>
<path d="M26 24.375V39" stroke="black" stroke-width="2" stroke-miterlimit="10" stroke-linecap="round" stroke-linejoin="round"/>
<path d="M19.5 24.375V39" stroke="black" stroke-width="2" stroke-miterlimit="10" stroke-linecap="round" stroke-linejoin="round"/>
<path d="M32.5 24.375V39" stroke="black" stroke-width="2" stroke-miterlimit="10" stroke-linecap="round" stroke-linejoin="round"/>
</svg>
