<svg width="52" height="52" viewBox="0 0 52 52" fill="none" xmlns="http://www.w3.org/2000/svg">
<g clip-path="url(#clip0_211_196)">
<path d="M1.0833 52C1.17864 52 1.27614 51.987 1.37147 51.961L12.5211 48.8865C12.5385 48.8822 12.5471 48.867 12.5645 48.8605C12.7226 48.8107 12.8743 48.7348 13 48.6092L13.0043 48.6048L51.2265 10.3805C52.2535 9.3535 52.2535 7.68517 51.2265 6.66034L45.3396 0.773504C44.3126 -0.253496 42.6443 -0.255663 41.6195 0.773504L3.3973 38.9957L3.3908 39C3.26514 39.1257 3.1893 39.2773 3.1373 39.4355C3.13297 39.4528 3.11564 39.4615 3.1113 39.4788L0.0368039 50.6285C-0.0671961 51.0033 0.0389706 51.4063 0.314137 51.6815C0.524304 51.8895 0.799471 52 1.0833 52ZM12.233 46.3103L9.7283 43.8057L43.4806 10.0512L45.9853 12.5558L12.233 46.3103ZM43.1513 2.30534C43.3896 2.067 43.5716 2.06917 43.8078 2.30534L49.6946 8.19217C49.8138 8.31134 49.8311 8.44784 49.8311 8.5215C49.8311 8.59301 49.8138 8.73167 49.6946 8.84867L47.5171 11.0262L40.9738 4.48284L43.1513 2.30534ZM39.442 6.01467L41.9466 8.51934L8.1943 42.2717L5.68964 39.767L39.442 6.01467ZM4.70814 41.8492L10.1508 47.2918L2.63464 49.3653L4.70814 41.8492Z" fill="black"/>
</g>
<defs>
<clipPath id="clip0_211_196">
<rect width="52" height="52" fill="white"/>
</clipPath>
</defs>
</svg>
