<svg width="20" height="19" viewBox="0 0 20 19" fill="none" xmlns="http://www.w3.org/2000/svg">
<g clip-path="url(#clip0_87_671)">
<path d="M19.1522 9.57886C19.1522 4.58167 14.8661 0.532837 9.57609 0.532837C4.28607 0.532837 0 4.58167 0 9.57886C0 14.0939 3.50184 17.8363 8.07982 18.5155V12.1938H5.64718V9.57886H8.07982V7.58582C8.07982 5.31884 9.50854 4.06662 11.6967 4.06662C12.7447 4.06662 13.8405 4.24317 13.8405 4.24317V6.4682H12.6327C11.4435 6.4682 11.0724 7.16562 11.0724 7.88091V9.57886H13.7282L13.3035 12.1938H11.0724V18.5155C15.6504 17.8363 19.1522 14.0939 19.1522 9.57886Z" fill="white"/>
</g>
<defs>
<clipPath id="clip0_87_671">
<rect width="20" height="19" fill="white"/>
</clipPath>
</defs>
</svg>
