<svg width="905" height="651" viewBox="0 0 905 651" fill="none" xmlns="http://www.w3.org/2000/svg">
<g clip-path="url(#clip0_41_95)">
<path d="M905 651C858.368 644.171 813.521 638.284 770.461 633.34L787.488 605.79C781.748 604.095 756.526 619.8 756.526 619.8L778.878 539.705C750.007 542.486 735.317 624.305 735.317 624.305L703.066 596.471L718.677 627.668C586.885 614.067 473.065 608.724 377.328 608.107L391.901 584.528C386.161 582.832 360.94 598.538 360.94 598.538L383.291 518.443C354.421 521.224 339.731 603.043 339.731 603.043L307.48 575.208L324.014 608.252C243.754 609.225 178.303 613.508 127.784 618.502C142.526 581.733 192.594 546.929 192.594 546.929C154.36 556.27 134.303 572.128 123.821 586.949C123.02 541.462 128.41 457.158 168.454 363.982C168.454 363.982 89.4077 507.566 99.4772 604.237L100.681 621.4C33.6837 629.12 -3.05176e-05 637.319 -3.05176e-05 637.319L905 651Z" fill="#3F3D56"/>
<path d="M481.22 26.0746V606.286C481.213 613.197 478.463 619.824 473.573 624.709C468.683 629.595 462.054 632.34 455.142 632.342H219.557C216.132 632.348 212.739 631.679 209.574 630.371C206.408 629.064 203.532 627.146 201.109 624.725C198.687 622.304 196.766 619.43 195.456 616.266C194.147 613.101 193.474 609.71 193.478 606.286V26.0746C193.478 22.6504 194.152 19.2596 195.463 16.096C196.773 12.9323 198.694 10.0578 201.116 7.63647C203.537 5.21516 206.412 3.29453 209.576 1.98427C212.741 0.674001 216.132 -0.000234007 219.557 6.22585e-05H254.812V4.52037C254.811 10.2142 257.072 15.6752 261.098 19.7022C265.124 23.7292 270.585 25.9924 276.28 25.9941H396.1C400.684 26.0039 405.148 24.5347 408.83 21.805C409.575 21.2636 410.281 20.6714 410.943 20.0326C413.04 18.0303 414.709 15.6229 415.848 12.9563C416.987 10.2898 417.572 7.41981 417.568 4.52037V6.22585e-05H455.142C458.566 -0.000986839 461.958 0.672738 465.123 1.98274C468.287 3.29274 471.162 5.21333 473.584 7.63479C476.006 10.0562 477.927 12.9311 479.237 16.0951C480.547 19.2591 481.221 22.6502 481.22 26.0746Z" fill="#3F3D56"/>
<path d="M259.109 102.938C262.57 102.938 265.376 100.132 265.376 96.672C265.376 93.2115 262.57 90.4062 259.109 90.4062C255.648 90.4062 252.842 93.2115 252.842 96.672C252.842 100.132 255.648 102.938 259.109 102.938Z" fill="#F2F2F2"/>
<path d="M410.943 20.0326C410.281 20.6714 409.575 21.2636 408.83 21.8049C416.505 35.3093 426.903 47.0717 439.365 56.3463C451.826 65.6208 466.079 72.2051 481.22 75.6817V72.8889C466.488 69.4142 452.637 62.9231 440.541 53.8255C428.445 44.7279 418.367 33.2214 410.943 20.0326Z" fill="#1266F1"/>
<path d="M357.398 25.994H354.462C364.886 52.4768 382.079 75.7603 404.323 93.5178C426.567 111.275 453.083 122.885 481.22 127.186V124.411C453.815 120.156 427.989 108.845 406.28 91.59C384.571 74.3347 367.725 51.7289 357.398 25.994Z" fill="#1266F1"/>
<path d="M303.307 25.994H300.478C324.14 108.111 395.536 169.239 481.22 179.165V176.435C397.022 166.553 326.852 106.59 303.307 25.994Z" fill="#1266F1"/>
<path d="M238.518 143.058H236.887V141.428H236.569V143.058H234.937V143.377H236.569V145.008H236.887V143.377H238.518V143.058Z" fill="#F2F2F2"/>
<path d="M348.633 61.6033H347.002V59.9724H346.684V61.6033H345.052V61.922H346.684V63.5529H347.002V61.922H348.633V61.6033Z" fill="#F2F2F2"/>
<path d="M254.632 207.506H253.001V205.876H252.683V207.506H251.051V207.825H252.683V209.456H253.001V207.825H254.632V207.506Z" fill="#F2F2F2"/>
<path d="M329.833 160.066H328.202V158.435H327.884V160.066H326.252V160.384H327.884V162.015H328.202V160.384H329.833V160.066Z" fill="#F2F2F2"/>
<path d="M437.263 189.604H435.632V187.973H435.314V189.604H433.682V189.923H435.314V191.554H435.632V189.923H437.263V189.604Z" fill="#F2F2F2"/>
<path d="M418.463 115.469C420.441 115.469 422.044 113.866 422.044 111.889C422.044 109.911 420.441 108.308 418.463 108.308C416.485 108.308 414.882 109.911 414.882 111.889C414.882 113.866 416.485 115.469 418.463 115.469Z" fill="#FF6584"/>
<path d="M290.174 195.85L288.142 196.164C288.777 200.227 289.279 204.381 289.646 208.489L291.696 208.31C291.329 204.148 290.819 199.959 290.174 195.85Z" fill="#E6E6E6"/>
<path d="M284.614 171.378L282.645 171.978C283.836 175.916 284.901 179.953 285.805 183.972L287.819 183.516C286.897 179.452 285.814 175.37 284.614 171.378Z" fill="#E6E6E6"/>
<path d="M275.743 147.908L273.871 148.767C275.59 152.518 277.202 156.367 278.661 160.216L280.586 159.491C279.109 155.597 277.488 151.694 275.743 147.908Z" fill="#E6E6E6"/>
<path d="M263.746 125.906L262.009 127.007C264.221 130.48 266.342 134.079 268.312 137.686L270.12 136.701C268.133 133.049 265.984 129.415 263.746 125.906Z" fill="#E6E6E6"/>
<path d="M248.831 105.74L247.265 107.073C249.933 110.206 252.529 113.482 254.982 116.794L256.629 115.568C254.158 112.22 251.535 108.908 248.831 105.74Z" fill="#E6E6E6"/>
<path d="M231.302 87.7836L229.933 89.3142C233.012 92.0622 236.029 94.9534 238.903 97.8983L240.38 96.4572C237.471 93.4764 234.418 90.5583 231.302 87.7836Z" fill="#E6E6E6"/>
<path d="M211.499 72.3697L210.345 74.0704C213.764 76.3708 217.149 78.8234 220.398 81.3566L221.67 79.7364C218.375 77.1764 214.955 74.6971 211.499 72.3697Z" fill="#E6E6E6"/>
<path d="M193.478 61.6642V63.9915C195.618 65.1104 197.739 66.283 199.816 67.4825L200.846 65.7012C198.429 64.3048 195.973 62.9591 193.478 61.6642Z" fill="#E6E6E6"/>
<path d="M289.709 389.197C290.043 387.195 290.348 385.152 290.617 383.123L292.658 383.394C292.386 385.445 292.077 387.511 291.739 389.535L289.709 389.197Z" fill="#E6E6E6"/>
<path d="M283.971 413.346L285.938 413.959C287.173 409.981 288.29 405.906 289.257 401.847L287.253 401.373C286.294 405.389 285.196 409.412 283.971 413.346Z" fill="#E6E6E6"/>
<path d="M274.981 436.468L276.849 437.344C278.625 433.577 280.287 429.696 281.795 425.811L279.874 425.062C278.384 428.905 276.74 432.744 274.981 436.468Z" fill="#E6E6E6"/>
<path d="M262.885 458.16L264.612 459.281C266.888 455.79 269.073 452.171 271.106 448.531L269.311 447.524C267.304 451.124 265.137 454.701 262.885 458.16Z" fill="#E6E6E6"/>
<path d="M247.92 477.977L249.48 479.328C252.219 476.17 254.874 472.885 257.39 469.562L255.742 468.33C253.261 471.614 250.632 474.859 247.92 477.977Z" fill="#E6E6E6"/>
<path d="M230.395 495.561L231.751 497.109C234.899 494.363 237.977 491.466 240.919 488.523L239.463 487.065C236.555 489.978 233.503 492.835 230.395 495.561Z" fill="#E6E6E6"/>
<path d="M210.652 510.591L211.79 512.313C215.266 510.018 218.718 507.572 222.03 505.051L220.785 503.408C217.505 505.907 214.095 508.326 210.652 510.591Z" fill="#E6E6E6"/>
<path d="M201.079 518.851C198.59 520.256 196.047 521.617 193.478 522.906V520.597C195.698 519.469 197.901 518.278 200.058 517.07L201.079 518.851Z" fill="#E6E6E6"/>
<path d="M290.313 221.187L292.371 221.15C292.408 223.227 292.411 225.316 292.379 227.358L290.321 227.326C290.353 225.307 290.35 223.242 290.313 221.187Z" fill="#E6E6E6"/>
<path d="M202.52 269.994H413.092C428.762 269.994 443.791 276.218 454.872 287.297C465.953 298.376 472.178 313.403 472.178 329.071V336.891H261.606C245.936 336.891 230.907 330.667 219.826 319.588C208.745 308.509 202.52 293.482 202.52 277.814V269.994Z" fill="white"/>
<path d="M342.268 631.52C342.063 631.184 337.219 623.097 335.539 606.303C333.999 590.896 334.989 564.925 348.46 528.699C373.98 460.07 342.579 404.696 342.258 404.144L343.807 403.246C343.888 403.386 351.991 417.504 356.778 439.985C363.102 469.79 360.799 500.78 350.138 529.323C324.662 597.834 343.602 630.267 343.796 630.587L342.268 631.52Z" fill="#F2F2F2"/>
<path d="M332.289 400.115C338.717 400.115 343.928 394.905 343.928 388.478C343.928 382.051 338.717 376.842 332.289 376.842C325.862 376.842 320.651 382.051 320.651 388.478C320.651 394.905 325.862 400.115 332.289 400.115Z" fill="#1266F1"/>
<path d="M368.995 443.08C375.422 443.08 380.633 437.87 380.633 431.444C380.633 425.017 375.422 419.807 368.995 419.807C362.567 419.807 357.356 425.017 357.356 431.444C357.356 437.87 362.567 443.08 368.995 443.08Z" fill="#F2F2F2"/>
<path d="M343.928 471.723C350.355 471.723 355.566 466.514 355.566 460.087C355.566 453.66 350.355 448.451 343.928 448.451C337.5 448.451 332.289 453.66 332.289 460.087C332.289 466.514 337.5 471.723 343.928 471.723Z" fill="#1266F1"/>
<path d="M374.366 495.892C380.794 495.892 386.004 490.682 386.004 484.255C386.004 477.828 380.794 472.619 374.366 472.619C367.939 472.619 362.728 477.828 362.728 484.255C362.728 490.682 367.939 495.892 374.366 495.892Z" fill="#1266F1"/>
<path d="M334.975 533.486C341.403 533.486 346.613 528.276 346.613 521.85C346.613 515.423 341.403 510.213 334.975 510.213C328.548 510.213 323.337 515.423 323.337 521.85C323.337 528.276 328.548 533.486 334.975 533.486Z" fill="#F2F2F2"/>
<path d="M349.299 631.948C349.299 631.948 337.661 603.305 372.576 581.822L349.299 631.948Z" fill="#F2F2F2"/>
<path d="M334.986 631.429C334.986 631.429 329.689 600.969 288.694 601.23L334.986 631.429Z" fill="#F2F2F2"/>
<path opacity="0.2" d="M288.652 375.051C328.207 375.051 360.272 342.991 360.272 303.443C360.272 263.894 328.207 231.834 288.652 231.834C249.097 231.834 217.032 263.894 217.032 303.443C217.032 342.991 249.097 375.051 288.652 375.051Z" fill="#1266F1"/>
<path opacity="0.2" d="M288.652 353.871C316.507 353.871 339.089 331.294 339.089 303.443C339.089 275.592 316.507 253.014 288.652 253.014C260.797 253.014 238.215 275.592 238.215 303.443C238.215 331.294 260.797 353.871 288.652 353.871Z" fill="#1266F1"/>
<path d="M288.652 336.726C307.037 336.726 321.94 321.824 321.94 303.443C321.94 285.061 307.037 270.16 288.652 270.16C270.268 270.16 255.364 285.061 255.364 303.443C255.364 321.824 270.268 336.726 288.652 336.726Z" fill="#1266F1"/>
<path d="M294.704 296.264C294.705 295.243 294.447 294.238 293.954 293.343C293.461 292.449 292.75 291.693 291.887 291.148C291.023 290.602 290.036 290.283 289.016 290.222C287.997 290.16 286.978 290.358 286.056 290.796C285.133 291.234 284.336 291.899 283.74 292.727C283.143 293.556 282.766 294.523 282.643 295.537C282.521 296.551 282.657 297.579 283.039 298.526C283.421 299.473 284.037 300.308 284.829 300.953L282.6 316.554H294.704L292.475 300.953C293.172 300.387 293.734 299.672 294.12 298.86C294.505 298.049 294.705 297.162 294.704 296.264Z" fill="white"/>
<path d="M623.19 47.7095C623.19 47.7095 603.224 29.8118 576.373 63.542C549.523 97.2721 507.526 113.793 497.887 126.872C497.887 126.872 537.818 110.351 551.588 103.467C565.358 96.5837 564.669 97.9605 564.669 97.9605C564.669 97.9605 546.08 111.04 542.638 124.119C539.195 137.198 541.949 148.212 535.753 161.291C529.557 174.37 654.171 170.239 654.171 170.239C654.171 170.239 666.564 148.9 663.121 126.872C659.679 104.844 661.744 50.463 623.19 47.7095Z" fill="#2F2E41"/>
<path d="M585.425 104.014C585.425 104.014 589.767 134.4 571.16 141.221C552.554 148.043 559.376 157.345 559.376 157.345L587.286 170.987L617.057 161.685L626.98 146.802C626.98 146.802 610.855 143.082 615.196 131.919C619.538 120.757 620.778 117.036 620.778 117.036L585.425 104.014Z" fill="#FFB9B9"/>
<path opacity="0.1" d="M585.425 104.014C585.425 104.014 589.767 134.4 571.16 141.221C552.554 148.043 559.376 157.345 559.376 157.345L587.286 170.987L617.057 161.685L626.98 146.802C626.98 146.802 610.855 143.082 615.196 131.919C619.538 120.757 620.778 117.036 620.778 117.036L585.425 104.014Z" fill="black"/>
<path d="M663.573 190.831C663.573 190.831 659.232 247.883 660.472 250.363C661.713 252.844 660.472 339.041 660.472 339.041C660.472 339.041 669.155 385.55 657.991 388.031C646.827 390.511 649.308 335.94 649.308 335.94L638.144 264.006L639.385 192.692L663.573 190.831Z" fill="#FFB9B9"/>
<path opacity="0.1" d="M663.573 190.831C663.573 190.831 659.232 247.883 660.472 250.363C661.713 252.844 660.472 339.041 660.472 339.041C660.472 339.041 669.155 385.55 657.991 388.031C646.827 390.511 649.308 335.94 649.308 335.94L638.144 264.006L639.385 192.692L663.573 190.831Z" fill="black"/>
<path d="M542.63 362.606C542.63 362.606 522.163 440.121 522.783 477.949C523.403 515.777 531.466 568.487 531.466 568.487C531.466 568.487 532.707 591.432 530.846 593.912C528.985 596.393 540.149 606.935 540.149 606.935L551.934 600.114L556.275 595.153V590.812C556.275 590.812 549.453 569.728 555.035 552.984C560.617 536.241 563.718 494.072 558.136 481.05L596.589 366.947L542.63 362.606Z" fill="#FFB9B9"/>
<path d="M541.39 597.013C541.39 597.013 533.947 587.711 528.986 590.812C524.024 593.913 515.961 614.997 515.961 614.997C515.961 614.997 488.051 641.662 507.898 642.902C527.745 644.143 536.428 637.321 538.909 632.36C541.39 627.399 564.338 614.377 564.338 614.377C564.338 614.377 561.857 590.812 558.136 590.192C554.415 589.572 548.833 599.494 548.833 599.494L541.39 597.013Z" fill="#2F2E41"/>
<path d="M610.234 367.567V444.462C610.306 453.793 610.928 463.111 612.095 472.368C613.956 486.011 601.551 587.711 601.551 587.711L602.792 605.695L618.297 604.454L620.158 588.951L642.486 520.738C642.486 520.738 649.928 479.189 646.207 463.686C642.486 448.183 665.434 348.963 665.434 348.963L610.234 367.567Z" fill="#FFB9B9"/>
<path d="M597.83 601.354L602.423 600.355C602.423 600.355 605.893 592.672 610.234 594.533C613.289 595.941 616.184 597.675 618.867 599.704L620.778 603.214C620.778 603.214 625.12 612.516 630.702 618.717C636.284 624.919 642.486 638.561 633.182 639.802C623.879 641.042 611.475 641.662 607.753 638.561C604.032 635.461 606.513 630.5 602.792 629.259C599.07 628.019 595.969 624.298 596.589 623.058C597.21 621.818 597.83 601.354 597.83 601.354Z" fill="#2F2E41"/>
<path d="M610.234 125.373C625.458 125.373 637.799 113.034 637.799 97.8125C637.799 82.5912 625.458 70.2519 610.234 70.2519C595.011 70.2519 582.669 82.5912 582.669 97.8125C582.669 113.034 595.011 125.373 610.234 125.373Z" fill="#FFB9B9"/>
<path d="M558.136 146.182L566.328 143.323C566.328 143.323 563.098 148.663 580.464 151.763C597.83 154.864 615.815 155.962 623.878 145.801C623.878 145.801 626.98 144.322 631.322 148.663C635.663 153.004 638.144 151.763 638.144 151.763L635.043 167.887L628.841 197.653L620.778 219.977L597.83 215.016L573.021 197.033L563.718 172.848V150.523L558.136 146.182Z" fill="#1266F1"/>
<path d="M633.803 154.864L640.005 150.523C640.005 150.523 661.092 154.244 662.333 164.166L646.207 195.172C649.496 203.8 649.273 213.372 645.587 221.837C639.385 236.1 640.005 239.201 640.005 239.201L635.663 257.805L556.895 264.006C556.895 264.006 553.794 256.564 552.554 255.324C551.313 254.084 551.313 249.743 552.554 249.743C553.794 249.743 552.554 247.883 551.313 246.022C550.073 244.162 549.453 243.542 551.313 241.061C553.174 238.581 548.212 216.256 548.212 216.256V192.072L527.125 164.166C527.125 164.166 534.567 153.004 538.289 151.763C542.01 150.523 559.712 145.632 559.712 145.632L563.718 151.529L569.3 196.412L577.363 223.698L611.311 217.931L624.499 195.792L633.182 169.747L633.803 154.864Z" fill="#1266F1"/>
<path d="M657.371 160.445L662.333 164.166C662.333 164.166 666.674 198.893 665.434 201.373C664.194 203.854 642.486 206.334 641.866 205.094C641.245 203.854 657.371 160.445 657.371 160.445Z" fill="#1266F1"/>
<path d="M555.035 143.082L561.237 184.01C561.237 184.01 555.655 244.782 556.895 257.185L558.136 260.905C558.136 260.905 555.655 259.665 555.035 262.146C554.414 264.626 555.035 272.688 555.035 272.688C555.035 272.688 551.313 276.408 550.073 296.873C548.832 317.337 533.947 366.327 539.529 368.187C545.111 370.047 578.603 379.349 596.589 377.489C614.576 375.628 679.079 353.924 678.459 348.343C677.838 342.762 646.827 264.006 646.827 264.006C646.827 264.006 641.245 254.704 641.245 253.464C641.245 252.224 648.688 247.263 646.827 242.302C644.967 237.341 635.043 185.25 635.043 185.25L641.866 148.043L632.562 145.562L625.74 181.529C625.74 181.529 599.07 194.552 571.16 182.77L564.958 140.601L555.035 143.082Z" fill="#2F2E41"/>
<path d="M584.875 78.0331C584.875 78.0331 630.772 109.659 643.176 95.3966C655.581 81.1337 621.468 68.7312 621.468 68.7312L592.938 65.6306L584.875 78.0331Z" fill="#2F2E41"/>
<path d="M513.564 414.474C518.288 417.99 524.133 419.662 530.002 419.178C535.871 418.694 541.362 416.086 545.446 411.844C549.53 407.601 551.926 402.015 552.185 396.133C552.444 390.25 550.549 384.475 546.854 379.89C543.159 375.304 537.919 372.224 532.115 371.225C526.311 370.227 520.342 371.379 515.327 374.466C510.312 377.553 506.595 382.363 504.873 387.994C503.152 393.625 503.543 399.691 505.974 405.054L442.673 457.751L434.245 447.749L430.458 450.282L426.244 445.281L429.707 442.364L425.493 437.363L420.106 441.901L422.7 444.978L416.929 449.84L414.335 446.762L405.871 453.893L409.761 458.509L412.839 455.916L417.053 460.917L413.206 464.158L420.986 473.39L411.752 481.169L421.153 492.325L513.564 414.474ZM529.369 379.124C532.524 379.393 535.528 380.592 538.001 382.569C540.474 384.545 542.306 387.21 543.264 390.228C544.222 393.245 544.264 396.478 543.384 399.519C542.504 402.56 540.742 405.272 538.321 407.312C535.9 409.352 532.928 410.628 529.781 410.979C526.635 411.33 523.455 410.74 520.643 409.284C517.832 407.828 515.515 405.571 513.987 402.799C512.458 400.027 511.786 396.863 512.056 393.709C512.417 389.48 514.444 385.567 517.691 382.831C520.938 380.096 525.139 378.763 529.369 379.124V379.124Z" fill="#1266F1"/>
<path d="M522.783 198.273C522.783 198.273 527.125 255.324 525.884 257.805C524.644 260.285 525.884 346.483 525.884 346.483C525.884 346.483 517.201 392.992 528.365 395.472C539.529 397.953 537.048 343.382 537.048 343.382L548.212 271.447L546.972 200.133L522.783 198.273Z" fill="#FFB9B9"/>
<path d="M532.087 162.306L527.125 164.166C527.125 164.166 517.821 203.234 520.302 203.234C522.783 203.234 552.554 206.954 552.554 205.714C552.554 204.474 546.972 174.088 546.972 174.088L532.087 162.306Z" fill="#1266F1"/>
</g>
<defs>
<clipPath id="clip0_41_95">
<rect width="905" height="651" fill="white"/>
</clipPath>
</defs>
</svg>
