<svg width="160" height="45" viewBox="0 0 160 45" fill="none" xmlns="http://www.w3.org/2000/svg">
<g clip-path="url(#clip0_87_674)">
<path d="M154.074 0.17749H5.92593C2.65313 0.17749 0 2.67846 0 5.76356V39.28C0 42.3651 2.65313 44.866 5.92593 44.866H154.074C157.346 44.866 160 42.3651 160 39.28V5.76356C160 2.67846 157.346 0.17749 154.074 0.17749Z" fill="black"/>
<path d="M154.074 1.07104C155.394 1.07248 156.659 1.56734 157.592 2.44705C158.526 3.32678 159.051 4.5195 159.052 5.76356V39.28C159.051 40.524 158.526 41.7168 157.592 42.5965C156.659 43.4763 155.394 43.9711 154.074 43.9726H5.92593C4.60616 43.9711 3.34089 43.4763 2.4077 42.5965C1.47451 41.7169 0.949607 40.5241 0.948148 39.28V5.76356C0.949585 4.51949 1.47448 3.32674 2.40768 2.44703C3.34087 1.5673 4.60615 1.07245 5.92593 1.07104H154.074ZM154.074 0.17749H5.92593C4.35569 0.181823 2.85107 0.771746 1.74074 1.8184C0.630409 2.86505 0.00459627 4.28338 0 5.76356V39.28C0.00459627 40.7601 0.630409 42.1785 1.74074 43.2252C2.85107 44.2718 4.35569 44.8618 5.92593 44.866H154.074C155.644 44.8618 157.148 44.2718 158.259 43.2252C159.369 42.1785 159.995 40.7601 160 39.28V5.76356C159.995 4.28338 159.369 2.86505 158.259 1.8184C157.148 0.771746 155.644 0.181823 154.074 0.17749Z" fill="#A6A6A6"/>
<path d="M56.1995 11.6212C56.221 12.0312 56.1538 12.4409 56.0019 12.8257C55.8501 13.2103 55.6168 13.5619 55.3163 13.8589C54.9794 14.1882 54.5726 14.4467 54.1224 14.6176C53.6723 14.7885 53.189 14.868 52.704 14.8507C52.2159 14.8547 51.7319 14.7668 51.2805 14.5921C50.8289 14.4174 50.4191 14.1593 50.0749 13.8332C49.7307 13.5069 49.4592 13.1192 49.2762 12.6927C49.0933 12.2662 49.0027 11.8095 49.0097 11.3495C49.0027 10.8894 49.0933 10.4328 49.2763 10.0062C49.4593 9.57968 49.7308 9.19192 50.075 8.8657C50.4192 8.53948 50.829 8.28139 51.2805 8.10658C51.7319 7.93178 52.2159 7.8438 52.704 7.84779C53.2058 7.84637 53.7025 7.94199 54.1636 8.12876C54.5916 8.29237 54.9728 8.549 55.2758 8.87775L54.6508 9.46742C54.4126 9.20314 54.1132 8.99398 53.7756 8.85608C53.4381 8.71818 53.0714 8.65523 52.704 8.67207C52.3341 8.67027 51.9676 8.73885 51.6265 8.87372C51.2854 9.00857 50.9767 9.20694 50.7189 9.45693C50.461 9.70691 50.2594 10.0034 50.126 10.3286C49.9925 10.6538 49.9302 11.001 49.9425 11.3495C49.9336 11.8714 50.0895 12.3841 50.3902 12.8225C50.6908 13.2609 51.1228 13.6052 51.6314 13.8119C52.14 14.0184 52.7021 14.0781 53.2467 13.9831C53.7913 13.8881 54.2936 13.6429 54.6901 13.2785C55.055 12.9078 55.2665 12.4259 55.2862 11.9206H52.704V11.1154H56.1497C56.1823 11.2823 56.1989 11.4515 56.1995 11.6212Z" fill="white" stroke="white" stroke-width="0.2" stroke-miterlimit="10"/>
<path d="M61.662 8.82176H58.4236V10.947H61.3437V11.7523H58.4236V13.8776H61.662V14.7014H57.5104V7.99805H61.662V8.82176Z" fill="white" stroke="white" stroke-width="0.2" stroke-miterlimit="10"/>
<path d="M65.5151 14.7014H64.6008V8.82176H62.6146V7.99805H67.5013V8.82176H65.5151V14.7014Z" fill="white" stroke="white" stroke-width="0.2" stroke-miterlimit="10"/>
<path d="M71.037 14.7014V7.99805H71.9502V14.7014H71.037Z" fill="white" stroke="white" stroke-width="0.2" stroke-miterlimit="10"/>
<path d="M76.0034 14.7014H75.089V8.82176H73.103V7.99805H77.9896V8.82176H76.0034V14.7014Z" fill="white" stroke="white" stroke-width="0.2" stroke-miterlimit="10"/>
<path d="M87.2405 13.8354C86.5484 14.4858 85.6108 14.851 84.6335 14.851C83.6561 14.851 82.7186 14.4858 82.0264 13.8354C81.684 13.5084 81.4148 13.1199 81.2348 12.6929C81.0549 12.2659 80.9679 11.8093 80.979 11.35C80.9679 10.8907 81.0549 10.4339 81.2348 10.007C81.4148 9.58002 81.684 9.19153 82.0264 8.8646C82.3685 8.54203 82.7748 8.28621 83.2219 8.11181C83.669 7.93743 84.1483 7.84787 84.6321 7.84827C85.116 7.84867 85.595 7.93904 86.0418 8.11418C86.4887 8.28933 86.8943 8.5458 87.2359 8.86896C87.5785 9.19502 87.8483 9.58265 88.0289 10.0088C88.2097 10.435 88.2977 10.8911 88.288 11.35C88.2988 11.8092 88.2116 12.2658 88.0316 12.6928C87.8517 13.1197 87.5827 13.5083 87.2405 13.8354ZM82.7012 13.274C83.2137 13.7565 83.9085 14.0274 84.6329 14.0274C85.3573 14.0274 86.0519 13.7565 86.5646 13.274C86.8275 13.0204 87.033 12.719 87.1689 12.3884C87.3048 12.0576 87.3682 11.7044 87.3551 11.35C87.3682 10.9955 87.3048 10.6423 87.1689 10.3116C87.033 9.98089 86.8275 9.67959 86.5646 9.42589C86.0519 8.94349 85.3573 8.67254 84.6329 8.67254C83.9085 8.67254 83.2137 8.94349 82.7012 9.42589C82.4386 9.67979 82.2334 9.98115 82.0977 10.3118C81.9621 10.6425 81.8988 10.9956 81.9118 11.35C81.8988 11.7043 81.9621 12.0574 82.0977 12.3881C82.2334 12.7188 82.4386 13.0201 82.7012 13.274Z" fill="white" stroke="white" stroke-width="0.2" stroke-miterlimit="10"/>
<path d="M89.5706 14.7014V7.99805H90.6829L94.1389 13.2126H94.1782L94.1389 11.9209V7.99805H95.0532V14.7014H94.0995L90.4837 9.23413H90.4444L90.4837 10.526V14.7014H89.5706Z" fill="white" stroke="white" stroke-width="0.2" stroke-miterlimit="10"/>
<path d="M80.7531 24.4786C79.757 24.4821 78.7842 24.7638 77.9577 25.2881C77.1313 25.8125 76.4882 26.5558 76.1097 27.4244C75.731 28.2929 75.6339 29.2477 75.8306 30.1683C76.0273 31.0889 76.5089 31.9339 77.2146 32.5967C77.9203 33.2594 78.8185 33.7101 79.7958 33.892C80.7731 34.0739 81.7856 33.9788 82.7057 33.6185C83.6256 33.2584 84.4118 32.6493 84.9648 31.8683C85.5179 31.0873 85.813 30.1693 85.813 29.2302C85.8227 28.6021 85.6984 27.9786 85.4474 27.3968C85.1964 26.8149 84.8236 26.2866 84.3516 25.8432C83.8795 25.4 83.3176 25.0506 82.6994 24.8163C82.0812 24.5818 81.4193 24.4669 80.7531 24.4786ZM80.7531 32.1101C80.1397 32.1513 79.5272 32.0175 78.9955 31.726C78.4638 31.4345 78.0376 30.9989 77.7723 30.4759C77.5069 29.9528 77.4147 29.3666 77.5077 28.7936C77.6008 28.2204 77.8748 27.6871 78.2939 27.2628C78.7131 26.8385 79.258 26.543 79.8577 26.4147C80.4575 26.2865 81.0844 26.3314 81.6567 26.5437C82.229 26.756 82.7203 27.1257 83.0666 27.605C83.4128 28.0841 83.598 28.6504 83.598 29.2302C83.6166 29.5965 83.5574 29.9625 83.4236 30.3069C83.2899 30.6513 83.0844 30.9668 82.8193 31.2352C82.5542 31.5035 82.2348 31.7192 81.88 31.8695C81.5251 32.0197 81.142 32.1016 80.7531 32.1101ZM69.715 24.4786C68.7189 24.4821 67.7461 24.7638 66.9196 25.2881C66.0932 25.8123 65.45 26.5557 65.0715 27.4243C64.6928 28.2929 64.5957 29.2477 64.7923 30.1682C64.989 31.0888 65.4706 31.9339 66.1763 32.5966C66.8821 33.2594 67.7803 33.7101 68.7576 33.892C69.7349 34.0739 70.7474 33.9788 71.6675 33.6185C72.5874 33.2584 73.3736 32.6494 73.9266 31.8683C74.4797 31.0873 74.7748 30.1693 74.7748 29.2302C74.7845 28.6021 74.6602 27.9786 74.4092 27.3968C74.1582 26.815 73.7855 26.2866 73.3135 25.8434C72.8413 25.4 72.2795 25.0508 71.6613 24.8163C71.0431 24.5818 70.3812 24.4669 69.715 24.4786ZM69.715 32.1101C69.1016 32.1513 68.4891 32.0175 67.9574 31.726C67.4257 31.4345 66.9995 30.9989 66.7342 30.4759C66.4688 29.9528 66.3766 29.3666 66.4696 28.7936C66.5627 28.2204 66.8367 27.6871 67.2558 27.2628C67.675 26.8385 68.2199 26.543 68.8196 26.4147C69.4194 26.2865 70.0463 26.3314 70.6186 26.5437C71.1909 26.756 71.6822 27.1257 72.0285 27.605C72.3747 28.0841 72.5599 28.6504 72.5599 29.2302C72.5785 29.5965 72.5193 29.9625 72.3855 30.3069C72.2518 30.6513 72.0463 30.9668 71.7813 31.2352C71.5161 31.5035 71.1967 31.7193 70.8419 31.8695C70.487 32.0197 70.1039 32.1016 69.715 32.1101ZM56.5846 25.9366V27.9523H61.7019C61.628 28.8978 61.2176 29.7921 60.5371 30.4902C60.0242 30.9829 59.4076 31.3689 58.7268 31.623C58.0459 31.8773 57.3162 31.9941 56.5846 31.9661C55.0889 31.947 53.6612 31.3735 52.6107 30.3696C51.5601 29.3659 50.9711 28.0125 50.9711 26.6024C50.9711 25.1923 51.5601 23.839 52.6107 22.8351C53.6612 21.8314 55.0889 21.2579 56.5846 21.2388C58.0213 21.221 59.4073 21.7385 60.4417 22.6787L61.95 21.2568C61.2443 20.5981 60.4062 20.079 59.4848 19.7298C58.5635 19.3805 57.5775 19.2082 56.5846 19.2229C55.547 19.2086 54.5167 19.3889 53.5536 19.7534C52.5905 20.1179 51.7139 20.6592 50.9749 21.3458C50.2358 22.0326 49.6488 22.8509 49.2482 23.7532C48.8476 24.6557 48.6412 25.6242 48.6412 26.6024C48.6412 27.5806 48.8476 28.5492 49.2482 29.4515C49.6488 30.3539 50.2358 31.1723 50.9749 31.8589C51.7139 32.5456 52.5905 33.0869 53.5536 33.4513C54.5167 33.8158 55.547 33.9962 56.5846 33.982C57.5984 34.0216 58.6097 33.8575 59.5511 33.5007C60.4926 33.1438 61.3429 32.6024 62.0454 31.9121C63.2927 30.6288 63.9575 28.936 63.8977 27.1964C63.9025 26.7739 63.8641 26.3521 63.7829 25.9366H56.5846ZM110.283 27.5023C109.98 26.6416 109.404 25.8898 108.632 25.3488C107.86 24.8078 106.93 24.504 105.968 24.4786C105.32 24.4823 104.68 24.6099 104.086 24.8535C103.492 25.0971 102.957 25.4517 102.513 25.8958C102.068 26.34 101.724 26.8645 101.501 27.4375C101.278 28.0107 101.18 28.6206 101.214 29.2302C101.199 29.855 101.318 30.476 101.564 31.0564C101.81 31.6368 102.177 32.1644 102.644 32.6079C103.111 33.0515 103.668 33.4018 104.282 33.6378C104.896 33.874 105.553 33.991 106.216 33.982C107.047 33.9862 107.865 33.7962 108.598 33.4286C109.332 33.061 109.956 32.5275 110.417 31.8761L108.698 30.7962C108.441 31.1992 108.077 31.5322 107.642 31.7625C107.207 31.9928 106.715 32.1127 106.216 32.1101C105.703 32.1286 105.195 32.0011 104.759 31.7444C104.324 31.4877 103.98 31.1135 103.772 30.6702L110.513 28.0424L110.283 27.5023ZM103.41 29.0863C103.386 28.7405 103.436 28.3937 103.556 28.0661C103.676 27.7386 103.864 27.437 104.109 27.1788C104.355 26.9208 104.652 26.7114 104.985 26.5629C105.317 26.4145 105.677 26.3301 106.044 26.3146C106.427 26.2908 106.808 26.3738 107.141 26.5529C107.474 26.7322 107.743 26.9999 107.916 27.3224L103.41 29.0863ZM97.9295 33.694H100.144V19.7269H97.9295V33.694ZM94.3017 25.5406H94.2254C93.8886 25.1956 93.4776 24.9225 93.0199 24.7393C92.5622 24.5562 92.0683 24.4673 91.5712 24.4786C90.2715 24.5308 89.0432 25.0542 88.1431 25.9395C87.243 26.8249 86.7404 28.0039 86.7404 29.2303C86.7404 30.4566 87.243 31.6356 88.1431 32.521C89.0432 33.4064 90.2715 33.9299 91.5712 33.982C92.0703 33.9945 92.5662 33.9044 93.0246 33.7179C93.483 33.5314 93.8927 33.253 94.2254 32.9021H94.3017V33.586C94.3017 35.404 93.2707 36.3758 91.6094 36.3758C91.0557 36.3633 90.5186 36.1957 90.0663 35.8945C89.6142 35.5931 89.2673 35.1717 89.07 34.6838L87.1415 35.44C87.505 36.2741 88.1244 36.987 88.9203 37.4872C89.7164 37.9874 90.6527 38.2522 91.6094 38.2477C94.2063 38.2477 96.4021 36.8078 96.4021 33.298V24.7664H94.3017V25.5406ZM91.7623 32.1101C90.9967 32.0489 90.2834 31.7189 89.7636 31.1857C89.2438 30.6523 88.9553 29.9545 88.9553 29.2303C88.9553 28.5061 89.2438 27.8082 89.7636 27.2748C90.2834 26.7416 90.9967 26.4117 91.7623 26.3504C92.1431 26.368 92.5163 26.4576 92.8597 26.614C93.203 26.7705 93.5095 26.9904 93.7606 27.2609C94.0119 27.5312 94.2028 27.8466 94.3219 28.188C94.4412 28.5294 94.4862 28.89 94.4544 29.2482C94.4842 29.6042 94.4375 29.9622 94.3171 30.3007C94.1968 30.6393 94.0051 30.9516 93.7539 31.2187C93.5025 31.4859 93.1966 31.7025 92.8545 31.8557C92.5122 32.0088 92.1407 32.0954 91.7623 32.1101ZM120.658 19.7271H115.359V33.694H117.57V28.4023H120.658C121.284 28.4346 121.909 28.3464 122.497 28.1431C123.086 27.9396 123.624 27.6255 124.078 27.2194C124.533 26.8135 124.896 26.3244 125.144 25.782C125.391 25.2395 125.519 24.6552 125.519 24.0648C125.519 23.4742 125.391 22.8899 125.144 22.3476C124.896 21.8052 124.533 21.316 124.078 20.9101C123.624 20.5041 123.086 20.1898 122.497 19.9865C121.909 19.783 121.284 19.6948 120.658 19.7271ZM120.716 26.4587H117.57V21.671H120.716C121.054 21.6644 121.389 21.7215 121.703 21.8388C122.017 21.9562 122.304 22.1315 122.546 22.3543C122.786 22.5773 122.978 22.8434 123.11 23.1371C123.24 23.4309 123.308 23.7462 123.308 24.0648C123.308 24.3835 123.24 24.6988 123.11 24.9925C122.978 25.2862 122.786 25.5524 122.546 25.7753C122.304 25.9983 122.017 26.1735 121.703 26.2909C121.389 26.4082 121.054 26.4652 120.716 26.4587ZM134.382 24.4529C133.575 24.4085 132.772 24.5871 132.071 24.9669C131.371 25.3468 130.802 25.9113 130.437 26.5911L132.401 27.3638C132.595 27.0264 132.89 26.7498 133.248 26.5679C133.607 26.386 134.015 26.3066 134.42 26.3395C134.982 26.2879 135.541 26.448 135.978 26.7849C136.414 27.1217 136.69 27.6077 136.747 28.1363V28.2801C136.036 27.9245 135.244 27.7394 134.439 27.7411C132.324 27.7411 130.17 28.8372 130.17 30.8856C130.19 31.3173 130.303 31.7407 130.501 32.1307C130.698 32.5206 130.976 32.8693 131.32 33.1559C131.662 33.4424 132.063 33.6612 132.498 33.799C132.933 33.9367 133.391 33.991 133.849 33.9582C134.406 33.9891 134.961 33.8787 135.457 33.6385C135.954 33.3983 136.372 33.0372 136.67 32.5925H136.747V33.6708H138.881V28.3161C138.881 25.8365 136.917 24.4529 134.382 24.4529ZM134.116 32.1074C133.391 32.1074 132.38 31.7661 132.38 30.9215C132.38 29.8435 133.639 29.4301 134.726 29.4301C135.431 29.4123 136.129 29.5737 136.747 29.8973C136.665 30.5031 136.354 31.0606 135.87 31.4669C135.386 31.8732 134.764 32.1007 134.116 32.1074ZM146.658 24.7584L144.123 30.8136H144.046L141.416 24.7584H139.034L142.98 33.2215L140.73 37.9292H143.036L149.118 24.7584H146.658ZM126.739 33.694H128.949V19.7271H126.739V33.694Z" fill="white"/>
<path d="M12.3677 8.59893C11.979 9.03697 11.7828 9.5985 11.8191 10.1685V34.877C11.7827 35.4469 11.9789 36.0086 12.3677 36.4465L12.4554 36.527L27.1386 22.686V22.3595L12.4554 8.51782L12.3677 8.59893Z" fill="url(#paint0_linear_87_674)"/>
<path d="M32.0329 27.3019L27.1388 22.6864V22.3598L32.0341 17.7452L32.1444 17.8046L37.9433 20.9105C39.5997 21.7976 39.5997 23.2491 37.9433 24.1367L32.1444 27.2426L32.0329 27.3019Z" fill="url(#paint1_linear_87_674)"/>
<path d="M32.1446 27.2421L27.139 22.5231L12.368 36.4469C12.7056 36.7274 13.1366 36.8879 13.5864 36.9005C14.0362 36.913 14.4765 36.7768 14.831 36.5155L32.1446 27.2421Z" fill="url(#paint2_linear_87_674)"/>
<path d="M32.1446 17.804L14.831 8.53068C14.4765 8.26936 14.0362 8.13316 13.5864 8.14569C13.1366 8.15822 12.7056 8.31868 12.368 8.59928L27.139 22.5231L32.1446 17.804Z" fill="url(#paint3_linear_87_674)"/>
<path opacity="0.2" d="M32.0343 27.1379L14.831 36.3519C14.4902 36.5966 14.0742 36.73 13.6458 36.7322C13.2175 36.7343 12.8 36.6051 12.4563 36.3639L12.368 36.4471L12.4557 36.5277L12.4563 36.5272C12.7999 36.7684 13.2175 36.8977 13.6458 36.8956C14.0742 36.8935 14.4902 36.7599 14.831 36.5152L32.1446 27.2418L32.0343 27.1379Z" fill="black"/>
<path opacity="0.12" d="M12.3676 36.2831C11.979 35.8453 11.7828 35.2841 11.8191 34.7145V34.8775C11.7827 35.4473 11.979 36.0085 12.3676 36.4463L12.4559 36.363L12.3676 36.2831Z" fill="black"/>
<path opacity="0.12" d="M37.9428 23.973L32.0336 27.1383L32.1439 27.2423L37.9428 24.1363C38.2839 23.9967 38.5791 23.7735 38.7977 23.4899C39.0161 23.2063 39.15 22.8727 39.1852 22.5237C39.112 22.8397 38.9615 23.1352 38.7457 23.3869C38.5302 23.6384 38.2552 23.8391 37.9428 23.973Z" fill="black"/>
<path opacity="0.25" d="M14.8309 8.69458L37.9435 21.0733C38.2559 21.2073 38.531 21.408 38.7467 21.6598C38.9623 21.9114 39.1127 22.2071 39.1859 22.5233C39.1508 22.1742 39.0171 21.8403 38.7986 21.5566C38.58 21.2729 38.2847 21.0495 37.9435 20.9101L14.8309 8.53135C13.1745 7.64417 11.8195 8.38108 11.8195 10.1695V10.3327C11.8195 8.54442 13.1745 7.80751 14.8309 8.69458Z" fill="white"/>
</g>
<defs>
<linearGradient id="paint0_linear_87_674" x1="25.8365" y1="9.90799" x2="7.11957" y2="29.7636" gradientUnits="userSpaceOnUse">
<stop stop-color="#00A0FF"/>
<stop offset="0.00657" stop-color="#00A1FF"/>
<stop offset="0.2601" stop-color="#00BEFF"/>
<stop offset="0.5122" stop-color="#00D2FF"/>
<stop offset="0.7604" stop-color="#00DFFF"/>
<stop offset="1" stop-color="#00E3FF"/>
</linearGradient>
<linearGradient id="paint1_linear_87_674" x1="40.1" y1="22.5235" x2="11.4222" y2="22.5235" gradientUnits="userSpaceOnUse">
<stop stop-color="#FFE000"/>
<stop offset="0.4087" stop-color="#FFBD00"/>
<stop offset="0.7754" stop-color="#FFA500"/>
<stop offset="1" stop-color="#FF9C00"/>
</linearGradient>
<linearGradient id="paint2_linear_87_674" x1="29.4248" y1="25.0872" x2="4.04313" y2="52.013" gradientUnits="userSpaceOnUse">
<stop stop-color="#FF3A44"/>
<stop offset="1" stop-color="#C31162"/>
</linearGradient>
<linearGradient id="paint3_linear_87_674" x1="8.64891" y1="0.374543" x2="19.9828" y2="12.398" gradientUnits="userSpaceOnUse">
<stop stop-color="#32A071"/>
<stop offset="0.0685" stop-color="#2DA771"/>
<stop offset="0.4762" stop-color="#15CF74"/>
<stop offset="0.8009" stop-color="#06E775"/>
<stop offset="1" stop-color="#00F076"/>
</linearGradient>
<clipPath id="clip0_87_674">
<rect width="160" height="45" fill="white"/>
</clipPath>
</defs>
</svg>
