<svg width="20" height="19" viewBox="0 0 20 19" fill="none" xmlns="http://www.w3.org/2000/svg">
<g clip-path="url(#clip0_87_667)">
<path d="M10.0789 4.91363C7.36155 4.91363 5.16968 6.97212 5.16968 9.52412C5.16968 12.0762 7.36155 14.1347 10.0789 14.1347C12.7964 14.1347 14.9882 12.0762 14.9882 9.52412C14.9882 6.97212 12.7964 4.91363 10.0789 4.91363ZM10.0789 12.5216C8.32289 12.5216 6.88728 11.1774 6.88728 9.52412C6.88728 7.87095 8.31862 6.52671 10.0789 6.52671C11.8393 6.52671 13.2707 7.87095 13.2707 9.52412C13.2707 11.1774 11.835 12.5216 10.0789 12.5216ZM16.3341 4.72504C16.3341 5.32292 15.8214 5.80043 15.189 5.80043C14.5524 5.80043 14.0439 5.31891 14.0439 4.72504C14.0439 4.13117 14.5567 3.64965 15.189 3.64965C15.8214 3.64965 16.3341 4.13117 16.3341 4.72504ZM19.5856 5.81648C19.5129 4.37594 19.1626 3.09992 18.0389 2.04861C16.9195 0.997299 15.5608 0.668263 14.0268 0.596036C12.446 0.51177 7.70763 0.51177 6.12675 0.596036C4.59714 0.664251 3.23843 0.993291 2.11473 2.0446C0.991022 3.09591 0.644934 4.37193 0.568027 5.81246C0.478301 7.29714 0.478301 11.7471 0.568027 13.2318C0.640662 14.6724 0.991022 15.9484 2.11473 16.9997C3.23843 18.051 4.59287 18.38 6.12675 18.4523C7.70763 18.5365 12.446 18.5365 14.0268 18.4523C15.5608 18.3841 16.9195 18.055 18.0389 16.9997C19.1584 15.9484 19.5087 14.6724 19.5856 13.2318C19.6753 11.7471 19.6753 7.30116 19.5856 5.81648ZM17.5433 14.8248C17.21 15.6114 16.5648 16.2173 15.7231 16.5342C14.4627 17.0037 11.4718 16.8954 10.0789 16.8954C8.68607 16.8954 5.69094 16.9997 4.43478 16.5342C3.59734 16.2213 2.95217 15.6153 2.61463 14.8248C2.11473 13.6411 2.23009 10.8323 2.23009 9.52412C2.23009 8.21603 2.119 5.40317 2.61463 4.22346C2.94789 3.43698 3.59307 2.83107 4.43478 2.51408C5.69521 2.0446 8.68607 2.15294 10.0789 2.15294C11.4718 2.15294 14.4669 2.04861 15.7231 2.51408C16.5606 2.82706 17.2057 3.43297 17.5433 4.22346C18.0432 5.40719 17.9278 8.21603 17.9278 9.52412C17.9278 10.8323 18.0432 13.6451 17.5433 14.8248Z" fill="white"/>
</g>
<defs>
<clipPath id="clip0_87_667">
<rect width="20" height="19" fill="white"/>
</clipPath>
</defs>
</svg>
