<svg width="70" height="70" viewBox="0 0 70 70" fill="none" xmlns="http://www.w3.org/2000/svg">
<path d="M52.0898 32.2656H37.7344V17.9102C37.7344 16.4062 36.5039 15.1758 35 15.1758C33.4961 15.1758 32.2656 16.4062 32.2656 17.9102V32.2656H17.9102C16.4062 32.2656 15.1758 33.4961 15.1758 35C15.1758 36.5039 16.4062 37.7344 17.9102 37.7344H32.2656V52.0898C32.2656 53.5938 33.4961 54.8242 35 54.8242C36.5039 54.8242 37.7344 53.5938 37.7344 52.0898V37.7344H52.0898C53.5938 37.7344 54.8242 36.5039 54.8242 35C54.8242 33.4961 53.5938 32.2656 52.0898 32.2656Z" fill="#231F20"/>
</svg>
