<svg width="24" height="19" viewBox="0 0 24 19" fill="none" xmlns="http://www.w3.org/2000/svg">
<g clip-path="url(#clip0_87_669)">
<path d="M21.0925 4.95087C21.1073 5.15214 21.1073 5.35346 21.1073 5.55472C21.1073 11.6937 16.295 18.7672 7.49945 18.7672C4.7897 18.7672 2.27248 18.0052 0.155029 16.6826C0.540033 16.7256 0.910177 16.7401 1.30999 16.7401C3.54585 16.7401 5.6041 16.0069 7.24771 14.756C5.14507 14.7129 3.383 13.3758 2.77589 11.5356C3.07206 11.5786 3.36819 11.6074 3.67917 11.6074C4.10857 11.6074 4.53801 11.5499 4.93779 11.4493C2.74631 11.0179 1.10265 9.14897 1.10265 6.89178V6.83429C1.73934 7.17935 2.47977 7.395 3.2645 7.42371C1.97626 6.58983 1.13228 5.16652 1.13228 3.55628C1.13228 2.69368 1.36915 1.90295 1.78378 1.21284C4.13815 4.03074 7.67711 5.87097 11.6454 6.07227C11.5714 5.72722 11.527 5.36784 11.527 5.00841C11.527 2.44927 13.6592 0.364624 16.3097 0.364624C17.6868 0.364624 18.9306 0.925326 19.8042 1.83108C20.8852 1.62981 21.9217 1.24161 22.8398 0.709674C22.4843 1.78797 21.7291 2.69373 20.7371 3.26877C21.6996 3.16818 22.6324 2.90933 23.4913 2.54995C22.8399 3.47003 22.0253 4.28949 21.0925 4.95087Z" fill="white"/>
</g>
<defs>
<clipPath id="clip0_87_669">
<rect width="24" height="19" fill="white"/>
</clipPath>
</defs>
</svg>
