<?xml version="1.0" standalone="no"?>
<!DOCTYPE svg PUBLIC "-//W3C//DTD SVG 20010904//EN"
 "http://www.w3.org/TR/2001/REC-SVG-20010904/DTD/svg10.dtd">
<svg version="1.0" xmlns="http://www.w3.org/2000/svg"
 width="1280.000000pt" height="1280.000000pt" viewBox="0 0 1280.000000 1280.000000"
 preserveAspectRatio="xMidYMid meet">
<metadata>
Created by potrace 1.16, written by Peter Selinger 2001-2019
</metadata>
<g transform="translate(0.000000,1280.000000) scale(0.100000,-0.100000)"
fill="#000000" stroke="none">
<path d="M4100 9113 c-48 -7 -145 -46 -177 -69 -17 -13 -36 -24 -40 -24 -11 0
-103 -93 -103 -104 0 -4 -11 -22 -24 -39 -64 -86 -93 -267 -62 -382 9 -33 19
-68 21 -78 2 -9 13 -30 24 -46 12 -16 21 -33 21 -38 0 -4 433 -441 962 -970
l963 -963 -963 -963 c-529 -529 -962 -966 -962 -970 0 -5 -9 -22 -21 -38 -11
-16 -22 -37 -24 -46 -2 -10 -12 -45 -21 -78 -31 -115 -2 -296 62 -382 13 -17
24 -36 24 -40 0 -11 93 -103 104 -103 4 0 22 -11 39 -24 86 -64 267 -93 382
-62 33 9 68 19 78 21 9 2 30 13 46 24 16 12 33 21 38 21 4 0 441 433 970 962
l963 963 963 -963 c529 -529 966 -962 970 -962 5 0 22 -9 38 -21 16 -11 37
-22 46 -24 10 -2 43 -11 73 -20 116 -32 303 -3 387 61 17 13 36 24 40 24 11 0
103 93 103 104 0 4 11 22 24 39 64 84 93 271 61 387 -9 30 -17 62 -19 70 -13
53 -144 190 -1010 1058 l-961 962 963 963 c529 529 962 966 962 970 0 5 9 22
21 38 11 16 22 37 24 46 2 10 12 45 21 78 31 115 2 296 -62 382 -13 17 -24 36
-24 40 0 11 -93 103 -104 103 -4 0 -22 11 -39 24 -86 64 -267 93 -382 62 -33
-9 -68 -19 -78 -21 -9 -2 -30 -13 -46 -24 -16 -12 -33 -21 -38 -21 -4 0 -441
-433 -970 -962 l-963 -963 -963 963 c-529 529 -966 962 -970 962 -5 0 -22 9
-38 21 -16 11 -37 22 -46 24 -10 2 -43 11 -73 19 -51 15 -150 19 -210 9z"/>
</g>
</svg>
