<svg width="130" height="102" viewBox="0 0 130 102" fill="none" xmlns="http://www.w3.org/2000/svg">
<path d="M58.3047 50.2837H49.3774L54.9568 23.3796H63.8851L58.3047 50.2837ZM41.8671 23.3796L33.3562 41.8845L32.3491 37.8997L32.35 37.9011L29.3461 25.802C29.3461 25.802 28.9829 23.3796 25.1113 23.3796H11.0411L10.876 23.8352C10.876 23.8352 15.1787 24.5376 20.2142 26.9103L27.9703 50.2844H37.2719L51.4751 23.3796H41.8671ZM112.085 50.2837H120.282L113.135 23.3789H105.959C102.645 23.3789 101.838 25.3839 101.838 25.3839L88.5236 50.2837H97.8297L99.6908 46.2874H111.04L112.085 50.2837ZM102.262 40.7668L106.952 30.6987L109.591 40.7668H102.262ZM89.2216 29.8494L90.4956 24.072C90.4956 24.072 86.5644 22.8989 82.4662 22.8989C78.036 22.8989 67.5155 24.4181 67.5155 31.8055C67.5155 38.7561 79.8632 38.8424 79.8632 42.4933C79.8632 46.1442 68.7877 45.49 65.1325 43.1878L63.8053 49.2287C63.8053 49.2287 67.7916 50.7479 73.8819 50.7479C79.9741 50.7479 89.1647 48.273 89.1647 41.5369C89.1647 34.5417 76.7061 33.8904 76.7061 30.8491C76.707 27.807 85.4013 28.1978 89.2216 29.8494Z" fill="#2566AF"/>
<path d="M31.7709 52.0781L28.767 39.979C28.767 39.979 28.4038 37.5566 24.5322 37.5566H10.462L10.2969 38.0122C10.2969 38.0122 17.0596 39.1118 23.5462 43.2319C29.7484 47.1699 31.7709 52.0781 31.7709 52.0781Z" fill="#E6A540"/>
</svg>
