<svg width="35" height="20" viewBox="0 0 35 20" fill="none" xmlns="http://www.w3.org/2000/svg">
<path d="M34.2239 2.30645C34.4576 1.56851 34.2239 1.02539 33.0993 1.02539H29.3782C28.4306 1.02539 27.9946 1.49177 27.7609 2.01128C27.7609 2.01128 25.8655 6.32675 23.1868 9.125C22.3214 9.93379 21.9233 10.1935 21.4495 10.1935C21.2158 10.1935 20.8557 9.93379 20.8557 9.19584V2.30645C20.8557 1.42092 20.5903 1.02539 19.8069 1.02539H13.9568C13.3628 1.02539 13.0091 1.43864 13.0091 1.82236C13.0091 2.66067 14.3484 2.85548 14.4874 5.21688V10.3411C14.4874 11.4628 14.2726 11.6694 13.7987 11.6694C12.5352 11.6694 9.46483 7.33624 7.64533 2.37729C7.2789 1.41503 6.91879 1.02539 5.96483 1.02539H2.24371C1.18233 1.02539 0.967529 1.49177 0.967529 2.01128C0.967529 2.93223 2.23107 7.50744 6.84931 13.5527C9.92602 17.6792 14.2599 19.9167 18.2021 19.9167C20.5714 19.9167 20.862 19.4207 20.862 18.5647C20.862 14.6212 20.6472 14.2492 21.8349 14.2492C22.3845 14.2492 23.3322 14.5091 25.5434 16.4985C28.0704 18.8599 28.4874 19.9167 29.9026 19.9167H33.6237C34.6851 19.9167 35.2221 19.4207 34.9125 18.4408C34.2049 16.3804 29.4225 12.1417 29.2076 11.8583C28.658 11.1971 28.8159 10.902 29.2076 10.3116C29.2139 10.3057 33.7564 4.33136 34.2239 2.30645Z" fill="white"/>
</svg>
